<svg
                  width="44"
                  height="44"
                  viewBox="0 0 44 44"
                  fill="none"
                  xmlns="http://www.w3.org/2000/svg"
                >
                  <rect
                    x="0.5"
                    y="0.5"
                    width="43"
                    height="43"
                    rx="21.5"
                    fill="white"
                  />
                  <rect
                    x="0.5"
                    y="0.5"
                    width="43"
                    height="43"
                    rx="21.5"
                    stroke="#D6DDEB"
                  />
                  <path
                    d="M18.4678 18.3947L18.4656 18.3965L18.4634 18.3986L18.4678 18.3947ZM28.4219 18.2082C28.3523 18.1411 28.2751 18.0824 28.1919 18.0334C28.0741 17.964 27.9433 17.9196 27.8076 17.9028C27.672 17.886 27.5343 17.8972 27.4031 17.9358C27.272 17.9743 27.1501 18.0393 27.0451 18.1268C26.9401 18.2143 26.8541 18.3225 26.7925 18.4445C26.448 19.1232 25.9729 19.7272 25.3945 20.2218C25.483 19.7234 25.5276 19.2183 25.5278 18.7121C25.5297 17.1722 25.1234 15.6593 24.3505 14.3274C23.5775 12.9956 22.4654 11.8924 21.1274 11.1301C20.98 11.0465 20.8138 11.0018 20.6444 11.0001C20.475 10.9983 20.3079 11.0397 20.1588 11.1202C20.0098 11.2007 19.8836 11.3178 19.7922 11.4605C19.7008 11.6031 19.6471 11.7667 19.6362 11.9357C19.5802 12.8839 19.3324 13.8109 18.9076 14.6604C18.4828 15.51 17.89 16.2644 17.165 16.8781L16.9346 17.0656C16.1765 17.5757 15.5055 18.2045 14.9473 18.9279C14.0796 20.021 13.4785 21.3012 13.1917 22.6671C12.9049 24.0329 12.9403 25.4468 13.2951 26.7966C13.6498 28.1464 14.3142 29.3949 15.2354 30.4433C16.1567 31.4916 17.3096 32.3109 18.6026 32.8361C18.7544 32.8981 18.9191 32.9219 19.0823 32.9052C19.2454 32.8885 19.402 32.8319 19.5381 32.7404C19.6742 32.6489 19.7857 32.5254 19.8628 32.3806C19.9399 32.2358 19.9801 32.0743 19.98 31.9103C19.9793 31.8042 19.9625 31.6989 19.9302 31.5978C19.7065 30.7568 19.6421 29.8814 19.7403 29.0168C20.6865 30.8015 22.2054 32.2162 24.0528 33.0334C24.2783 33.1342 24.5332 33.1478 24.7681 33.0715C26.2277 32.6004 27.5425 31.7639 28.5878 30.6415C29.633 29.5191 30.3739 28.1481 30.74 26.6588C31.1061 25.1694 31.0853 23.6112 30.6796 22.1321C30.2739 20.653 29.4967 19.3023 28.4219 18.2082ZM24.5171 31.0392C23.6454 30.5975 22.8765 29.9772 22.2603 29.2187C21.6441 28.4602 21.1944 27.5806 20.9405 26.6369C20.8629 26.3191 20.8029 25.9974 20.7608 25.673C20.7322 25.4665 20.6398 25.274 20.4965 25.1226C20.3532 24.9711 20.1661 24.8682 19.9615 24.8283C19.8984 24.8159 19.8343 24.8096 19.77 24.8097C19.5943 24.8097 19.4216 24.856 19.2694 24.9439C19.1173 25.0319 18.991 25.1584 18.9033 25.3107C18.0736 26.7419 17.6563 28.3748 17.6978 30.0285C16.968 29.4611 16.3581 28.7545 15.9034 27.9497C15.4488 27.1449 15.1584 26.2578 15.049 25.3399C14.9397 24.422 15.0137 23.4915 15.2666 22.6024C15.5195 21.7133 15.9464 20.8833 16.5225 20.1603C16.9599 19.5922 17.4876 19.0996 18.0845 18.7023C18.1103 18.6857 18.1351 18.6674 18.1587 18.6477C18.1587 18.6477 18.4554 18.4022 18.4655 18.3966C19.8902 17.1915 20.9035 15.5721 21.3643 13.7639C22.4538 14.7711 23.1804 16.1099 23.431 17.5724C23.6817 19.0349 23.4425 20.5392 22.7505 21.8518C22.6591 22.0269 22.6216 22.2252 22.6427 22.4216C22.6639 22.6181 22.7427 22.8039 22.8693 22.9555C22.9959 23.1072 23.1646 23.218 23.3541 23.2739C23.5436 23.3298 23.7454 23.3284 23.9341 23.2698C25.4659 22.7896 26.8138 21.8517 27.7964 20.5823C28.3869 21.4545 28.773 22.4489 28.9259 23.4911C29.0787 24.5334 28.9944 25.5967 28.6792 26.6018C28.364 27.6069 27.826 28.528 27.1054 29.2963C26.3847 30.0646 25.5 30.6604 24.5171 31.0393L24.5171 31.0392Z"
                    fill="#26A4FF"
                  />
                </svg>